<?xml version="1.0" encoding="UTF-8" standalone="no"?>
<svg
   xmlns:dc="http://purl.org/dc/elements/1.1/"
   xmlns:cc="http://creativecommons.org/ns#"
   xmlns:rdf="http://www.w3.org/1999/02/22-rdf-syntax-ns#"
   xmlns:svg="http://www.w3.org/2000/svg"
   xmlns="http://www.w3.org/2000/svg"
   xmlns:sodipodi="http://sodipodi.sourceforge.net/DTD/sodipodi-0.dtd"
   xmlns:inkscape="http://www.inkscape.org/namespaces/inkscape"
   inkscape:export-ydpi="862.32001"
   inkscape:export-xdpi="862.32001"
   inkscape:export-filename="C:\Users\hendr\git\tictactoe\app-store-stuff\app-icon.png"
   width="1024"
   height="500"
   viewBox="0 0 1024 500"
   version="1.1"
   id="svg8"
   inkscape:version="1.0 (4035a4fb49, 2020-05-01)"
   sodipodi:docname="feature-graphic.svg">
  <defs
     id="defs2">
    <inkscape:path-effect
       effect="skeletal"
       id="path-effect1234"
       is_visible="true"
       lpeversion="1"
       pattern="M 493.68746,246.99399 V 771.37704"
       copytype="single_stretched"
       prop_scale="1"
       scale_y_rel="false"
       spacing="0"
       normal_offset="0"
       tang_offset="0"
       prop_units="false"
       vertical_pattern="false"
       hide_knot="false"
       fuse_tolerance="0" />
    <inkscape:path-effect
       effect="skeletal"
       id="path-effect1224"
       is_visible="true"
       lpeversion="1"
       pattern="M 0,5 C 0,2.24 2.24,0 5,0 7.76,0 10,2.24 10,5 10,7.76 7.76,10 5,10 2.24,10 0,7.76 0,5 Z"
       copytype="single_stretched"
       prop_scale="1"
       scale_y_rel="false"
       spacing="0"
       normal_offset="0"
       tang_offset="0"
       prop_units="false"
       vertical_pattern="false"
       hide_knot="false"
       fuse_tolerance="0" />
    <inkscape:path-effect
       effect="powerstroke"
       id="path-effect1220"
       is_visible="true"
       lpeversion="1"
       offset_points="0,5.6458"
       sort_points="true"
       interpolator_type="CubicBezierJohan"
       interpolator_beta="0.2"
       start_linecap_type="zerowidth"
       linejoin_type="extrp_arc"
       miter_limit="4"
       scale_width="1"
       end_linecap_type="zerowidth" />
    <inkscape:path-effect
       effect="powerstroke"
       id="path-effect25"
       is_visible="true"
       lpeversion="1"
       offset_points="0,0.28229"
       sort_points="true"
       interpolator_type="CubicBezierJohan"
       interpolator_beta="0.2"
       start_linecap_type="zerowidth"
       linejoin_type="extrp_arc"
       miter_limit="4"
       scale_width="1"
       end_linecap_type="zerowidth" />
    <inkscape:path-effect
       effect="simplify"
       id="path-effect23"
       is_visible="true"
       lpeversion="1"
       steps="1"
       threshold="0.000408163"
       smooth_angles="360"
       helper_size="0"
       simplify_individual_paths="false"
       simplify_just_coalesce="false" />
    <inkscape:path-effect
       effect="simplify"
       id="path-effect19"
       is_visible="true"
       lpeversion="1"
       steps="1"
       threshold="0.000408163"
       smooth_angles="360"
       helper_size="0"
       simplify_individual_paths="false"
       simplify_just_coalesce="false" />
  </defs>
  <sodipodi:namedview
     showguides="false"
     id="base"
     pagecolor="#ffffff"
     bordercolor="#666666"
     borderopacity="1.0"
     inkscape:pageopacity="0.0"
     inkscape:pageshadow="2"
     inkscape:zoom="0.59385921"
     inkscape:cx="713.58697"
     inkscape:cy="224.74149"
     inkscape:document-units="px"
     inkscape:current-layer="layer1"
     showgrid="false"
     units="px"
     showborder="true"
     borderlayer="false"
     inkscape:showpageshadow="true"
     inkscape:pagecheckerboard="false"
     scale-x="0.56458"
     inkscape:window-width="1920"
     inkscape:window-height="1017"
     inkscape:window-x="-8"
     inkscape:window-y="-8"
     inkscape:window-maximized="1"
     inkscape:document-rotation="0"
     fit-margin-top="0"
     fit-margin-left="0"
     fit-margin-right="0"
     fit-margin-bottom="0"
     lock-margins="false" />
  <metadata
     id="metadata5">
    <rdf:RDF>
      <cc:Work
         rdf:about="">
        <dc:format>image/svg+xml</dc:format>
        <dc:type
           rdf:resource="http://purl.org/dc/dcmitype/StillImage" />
        <dc:title></dc:title>
      </cc:Work>
    </rdf:RDF>
  </metadata>
  <g
     inkscape:label="Layer 1"
     inkscape:groupmode="layer"
     id="layer1"
     transform="translate(-200.26125,-1047.6985)">
    <rect
       ry="20"
       rx="20"
       y="1024.9066"
       x="178.46468"
       height="545.58386"
       width="1067.5931"
       id="rect67"
       style="fill:#00d0d0;stroke-width:1.512;fill-opacity:1" />
    <text
       id="text35"
       y="1072.4275"
       x="210.07343"
       style="font-style:normal;font-variant:normal;font-weight:bold;font-stretch:normal;font-size:42.6667px;line-height:1;font-family:'Courier New';-inkscape-font-specification:'Courier New Bold';letter-spacing:5px;word-spacing:0px;fill:#000000;fill-opacity:0.11845102;"
       xml:space="preserve"><tspan
         id="tspan39"
         y="1072.4275"
         x="210.07343"
         sodipodi:role="line">xoxoxoxoxoxoxoxoxoxoxoxoxoxoxoxox</tspan><tspan
         id="tspan45"
         y="1115.0942"
         x="210.07343"
         sodipodi:role="line">oxoxoxoxoxoxoxoxoxoxoxoxoxoxoxoxo</tspan><tspan
         id="tspan47"
         y="1157.7609"
         x="210.07343"
         sodipodi:role="line">xoxoxoxoxoxoxoxoxoxoxoxoxoxoxoxox</tspan><tspan
         id="tspan49"
         y="1200.4276"
         x="210.07343"
         sodipodi:role="line">oxoxoxoxoxoxoxoxoxoxoxoxoxoxoxoxo</tspan><tspan
         id="tspan51"
         y="1243.0942"
         x="210.07343"
         sodipodi:role="line">xoxoxoxoxoxoxoxoxoxoxoxoxoxoxoxox</tspan><tspan
         id="tspan53"
         y="1285.761"
         x="210.07343"
         sodipodi:role="line">oxoxoxoxoxoxoxoxoxoxoxoxoxoxoxoxo</tspan><tspan
         id="tspan55"
         y="1328.4277"
         x="210.07343"
         sodipodi:role="line">oxoxoxoxoxoxoxoxoxoxoxoxoxoxoxoxo</tspan><tspan
         id="tspan57"
         y="1371.0944"
         x="210.07343"
         sodipodi:role="line">oxoxoxoxoxoxoxoxoxoxoxoxoxoxoxoxo</tspan><tspan
         id="tspan59"
         y="1413.7611"
         x="210.07343"
         sodipodi:role="line">oxoxoxoxoxoxoxoxoxoxoxoxoxoxoxoxo</tspan><tspan
         id="tspan61"
         y="1456.4277"
         x="210.07343"
         sodipodi:role="line">oxoxoxoxoxoxoxoxoxoxoxoxoxoxoxoxo</tspan><tspan
         id="tspan63"
         y="1499.0945"
         x="210.07343"
         sodipodi:role="line">oxoxoxoxoxoxoxoxoxoxoxoxoxoxoxoxo</tspan><tspan
         id="tspan65"
         y="1541.7612"
         x="210.07343"
         sodipodi:role="line">xoxoxoxoxoxoxoxoxoxoxoxoxoxoxoxox</tspan></text>
    <rect
       ry="20"
       rx="20"
       y="1216.4485"
       x="574.76123"
       height="275"
       width="275"
       id="rect31"
       style="fill:#cccccc;stroke-width:1.512" />
    <g
       transform="matrix(4.3859649,0,0,4.3859649,-385.37581,-3460.5186)"
       id="g29">
      <path
         d="m 278.76125,1107.1984 h -19 v -18.9998 h 19 m -37.99999,37.9999 v -19.0001 h 18.99999 v 19.0001 m 0,-57 v 19.0001 h -19 v -19.0001 m -19,19.0001 h 19 v 18.9998 h -19"
         style="fill:none;stroke:#000000;stroke-width:1.26666"
         id="rect1314-3-8" />
      <path
         id="path86"
         style="font-style:normal;font-variant:normal;font-weight:normal;font-stretch:normal;font-size:23.8673px;line-height:1.25;font-family:'Permanent Marker';-inkscape-font-specification:'Permanent Marker';letter-spacing:0px;word-spacing:0px;stroke-width:1.512;stroke-miterlimit:4;stroke-dasharray:none"
         d="m 232.05524,1082.5652 q -0.26571,-0.8857 -0.77942,-1.7005 -0.49599,-0.8148 -0.95656,-1.3994 -0.72627,0.5491 -1.38169,1.2223 -0.63771,0.6554 -1.16913,1.4171 -0.0354,0.372 -0.0886,0.62 -0.0531,0.2303 -0.19486,0.3897 -0.124,0.1594 -0.33656,0.2657 -0.19486,0.124 -0.51371,0.248 -0.58456,-0.4252 -0.85027,-1.0452 -0.26571,-0.6376 -0.0708,-1.2576 0.0177,-0.4429 0.21256,-0.868 0.21257,-0.4252 0.49599,-0.7972 0.30114,-0.3896 0.63771,-0.7262 0.33657,-0.3543 0.6377,-0.6555 0.0531,-0.1771 0.19486,-0.3011 0.15942,-0.1417 0.31885,-0.2657 0.17714,-0.124 0.33656,-0.2657 0.17714,-0.1417 0.28343,-0.3366 -0.124,-0.4074 -0.47828,-0.8148 -0.35428,-0.4252 -0.65542,-0.868 -0.0354,-0.089 -0.14171,-0.053 -0.0886,0.036 -0.124,-0.017 0.0354,-0.2303 -0.10628,-0.496 -0.124,-0.2657 -0.31886,-0.4605 0.0531,-0.1949 0.124,-0.4606 0.0708,-0.2835 -0.0354,-0.62 0,-0.1418 0.0531,-0.2657 0.0531,-0.1417 0.10629,-0.248 0.0531,-0.124 0.0886,-0.2303 0.0354,-0.124 -0.0177,-0.2303 0.23028,-0.036 0.40742,0.018 0.17714,0.053 0.33657,0.124 0.15942,0.071 0.28342,0.1063 0.14171,0.036 0.28342,-0.018 -0.0177,0.089 0,0.124 0.0177,0.036 0.0531,0.053 0.0354,0.017 0.0708,0.053 0.0354,0.017 0.0354,0.071 0.28342,0.089 0.61999,0.3897 0.33656,0.2834 0.63771,0.6377 0.31885,0.3542 0.56684,0.7086 0.248,0.3542 0.37199,0.5313 0.42514,-0.2657 0.92114,-0.62 0.49599,-0.3719 1.0274,-0.7616 0.53143,-0.3898 1.06285,-0.7263 0.54913,-0.3543 1.06284,-0.5669 0.30114,0.1418 0.46056,0.3543 0.17714,0.1949 0.28343,0.4252 0.12399,0.2126 0.21256,0.4605 0.0886,0.2303 0.248,0.4075 -0.14171,0.3011 -0.31885,0.5137 -0.15943,0.1948 -0.23028,0.4605 -0.372,0.1595 -0.8857,0.4783 -0.46056,0.2834 -1.1337,0.7617 -0.65542,0.4783 -1.59426,1.2754 0.21257,0.248 0.35428,0.4783 0.14171,0.2302 0.23028,0.3897 0.0886,0.1949 0.15943,0.3543 0.15943,0.124 0.2657,0.2834 0.10629,0.1595 0.19486,0.3365 0.10629,0.1595 0.23028,0.3189 0.124,0.1417 0.31886,0.2303 0.10628,0.5314 0.30113,0.9565 0.19486,0.4075 0.17714,0.8503 -0.124,0.4075 -0.37199,0.6732 -0.23028,0.2657 -0.33657,0.5491 -0.15942,0.053 -0.31885,0.1063 -0.15942,0.053 -0.248,0.1594 z" />
      <path
         id="path92"
         style="font-style:normal;font-variant:normal;font-weight:normal;font-stretch:normal;font-size:23.8673px;line-height:1.25;font-family:'Permanent Marker';-inkscape-font-specification:'Permanent Marker';letter-spacing:0px;word-spacing:0px;stroke-width:1.51159"
         d="m 271.90584,1082.5656 q -0.26571,-0.8857 -0.77941,-1.7005 -0.49599,-0.8149 -0.95655,-1.3995 -0.72628,0.5492 -1.3817,1.2224 -0.6377,0.6554 -1.16912,1.417 -0.0354,0.3721 -0.0886,0.6201 -0.0531,0.2302 -0.19486,0.3897 -0.12399,0.1594 -0.33657,0.2657 -0.19485,0.1239 -0.5137,0.248 -0.58456,-0.4252 -0.85028,-1.0452 -0.26571,-0.6377 -0.0708,-1.2576 0.0177,-0.4429 0.21257,-0.868 0.21257,-0.4252 0.496,-0.7972 0.30113,-0.3897 0.6377,-0.7262 0.33656,-0.3544 0.63771,-0.6555 0.0531,-0.1771 0.19484,-0.3011 0.15943,-0.1417 0.31886,-0.2658 0.17714,-0.1239 0.33657,-0.2657 0.17713,-0.1416 0.28342,-0.3365 -0.124,-0.4074 -0.47828,-0.8149 -0.35428,-0.4251 -0.65541,-0.8679 -0.0354,-0.089 -0.14172,-0.053 -0.0886,0.036 -0.124,-0.018 0.0354,-0.2303 -0.10628,-0.496 -0.124,-0.2657 -0.31885,-0.4606 0.0531,-0.1948 0.12399,-0.4605 0.0708,-0.2835 -0.0354,-0.62 0,-0.1418 0.0531,-0.2657 0.0531,-0.1418 0.10629,-0.248 0.0531,-0.124 0.0886,-0.2303 0.0354,-0.124 -0.0177,-0.2303 0.23028,-0.036 0.40742,0.017 0.17714,0.053 0.33656,0.124 0.15943,0.071 0.28343,0.1063 0.14171,0.036 0.28343,-0.017 -0.0177,0.089 0,0.124 0.0177,0.036 0.0531,0.053 0.0354,0.017 0.0708,0.053 0.0354,0.017 0.0354,0.071 0.28342,0.089 0.61999,0.3898 0.33656,0.2834 0.6377,0.6376 0.31885,0.3543 0.56685,0.7086 0.248,0.3543 0.372,0.5314 0.42513,-0.2657 0.92112,-0.62 0.496,-0.3719 1.02742,-0.7617 0.53141,-0.3897 1.06284,-0.7262 0.54913,-0.3543 1.06284,-0.5669 0.30114,0.1417 0.46056,0.3543 0.17714,0.1949 0.28343,0.4252 0.12399,0.2125 0.21256,0.4605 0.0886,0.2303 0.248,0.4074 -0.14171,0.3012 -0.31885,0.5137 -0.15943,0.1949 -0.23028,0.4606 -0.372,0.1594 -0.88571,0.4783 -0.46056,0.2834 -1.13369,0.7616 -0.65542,0.4783 -1.59426,1.2755 0.21257,0.248 0.35428,0.4782 0.14171,0.2303 0.23028,0.3898 0.0886,0.1948 0.15943,0.3542 0.15942,0.124 0.26571,0.2835 0.10628,0.1594 0.19485,0.3365 0.10628,0.1595 0.23029,0.3189 0.12399,0.1417 0.31885,0.2303 0.10628,0.5314 0.30113,0.9565 0.19486,0.4075 0.17714,0.8503 -0.12399,0.4074 -0.37199,0.6731 -0.23029,0.2657 -0.33656,0.5491 -0.15944,0.053 -0.31886,0.1064 -0.15943,0.053 -0.248,0.1593 z" />
      <path
         id="path89"
         style="font-style:normal;font-variant:normal;font-weight:normal;font-stretch:normal;font-size:23.8673px;line-height:1.25;font-family:'Permanent Marker';-inkscape-font-specification:'Permanent Marker';letter-spacing:0px;word-spacing:0px;stroke-width:1.51159"
         d="m 251.36531,1082.5656 q -0.26571,-0.8857 -0.77942,-1.7005 -0.49599,-0.8149 -0.95656,-1.3995 -0.72627,0.5492 -1.38168,1.2224 -0.63771,0.6554 -1.16914,1.417 -0.0354,0.3721 -0.0886,0.6201 -0.0531,0.2302 -0.19484,0.3897 -0.12401,0.1594 -0.33657,0.2657 -0.19486,0.1239 -0.51371,0.248 -0.58456,-0.4252 -0.85027,-1.0452 -0.26571,-0.6377 -0.0708,-1.2576 0.0177,-0.4429 0.21256,-0.868 0.21257,-0.4252 0.49599,-0.7972 0.30115,-0.3897 0.63771,-0.7262 0.33657,-0.3544 0.6377,-0.6555 0.0531,-0.1771 0.19486,-0.3011 0.15942,-0.1417 0.31885,-0.2658 0.17714,-0.1239 0.33657,-0.2657 0.17714,-0.1416 0.28342,-0.3365 -0.124,-0.4074 -0.47827,-0.8149 -0.35429,-0.4251 -0.65543,-0.8679 -0.0354,-0.089 -0.14171,-0.053 -0.0886,0.036 -0.124,-0.018 0.0354,-0.2303 -0.10628,-0.496 -0.124,-0.2657 -0.31886,-0.4606 0.0531,-0.1948 0.12401,-0.4605 0.0708,-0.2835 -0.0354,-0.62 0,-0.1418 0.0531,-0.2657 0.0531,-0.1418 0.10629,-0.248 0.0531,-0.124 0.0886,-0.2303 0.0354,-0.124 -0.0177,-0.2303 0.23028,-0.036 0.40742,0.017 0.17714,0.053 0.33656,0.124 0.15943,0.071 0.28343,0.1063 0.14171,0.036 0.28342,-0.017 -0.0177,0.089 0,0.124 0.0177,0.036 0.0531,0.053 0.0354,0.017 0.0708,0.053 0.0354,0.017 0.0354,0.071 0.28343,0.089 0.61999,0.3898 0.33657,0.2834 0.6377,0.6376 0.31886,0.3543 0.56686,0.7086 0.24799,0.3543 0.37199,0.5314 0.42513,-0.2657 0.92113,-0.62 0.49599,-0.3719 1.02741,-0.7617 0.53142,-0.3897 1.06284,-0.7262 0.54913,-0.3543 1.06284,-0.5669 0.30114,0.1417 0.46057,0.3543 0.17714,0.1949 0.28342,0.4252 0.124,0.2125 0.21257,0.4605 0.0886,0.2303 0.24799,0.4074 -0.14171,0.3012 -0.31885,0.5137 -0.15942,0.1949 -0.23028,0.4606 -0.37199,0.1594 -0.8857,0.4783 -0.46057,0.2834 -1.1337,0.7616 -0.65542,0.4783 -1.59426,1.2755 0.21257,0.248 0.35428,0.4782 0.14171,0.2303 0.23028,0.3898 0.0886,0.1948 0.15943,0.3542 0.15943,0.124 0.26571,0.2835 0.10628,0.1594 0.19486,0.3365 0.10628,0.1595 0.23028,0.3189 0.124,0.1417 0.31885,0.2303 0.10628,0.5314 0.30114,0.9565 0.19485,0.4075 0.17714,0.8503 -0.124,0.4074 -0.372,0.6731 -0.23028,0.2657 -0.33656,0.5491 -0.15943,0.053 -0.31885,0.1064 -0.15943,0.053 -0.248,0.1593 z" />
      <path
         id="path95"
         style="font-style:normal;font-variant:normal;font-weight:normal;font-stretch:normal;font-size:23.8673px;line-height:1.25;font-family:'Permanent Marker';-inkscape-font-specification:'Permanent Marker';letter-spacing:0px;word-spacing:0px;stroke-width:1.51159"
         d="m 271.85049,1102.4287 q -0.26571,-0.8857 -0.77942,-1.7005 -0.49599,-0.8149 -0.95656,-1.3994 -0.72627,0.5491 -1.3817,1.2222 -0.6377,0.6554 -1.16912,1.4171 -0.0354,0.372 -0.0886,0.62 -0.0531,0.2303 -0.19485,0.3897 -0.124,0.1595 -0.33656,0.2657 -0.19486,0.1241 -0.51371,0.248 -0.58456,-0.4251 -0.85027,-1.0451 -0.26571,-0.6377 -0.0708,-1.2577 0.0177,-0.4428 0.21258,-0.868 0.21256,-0.4251 0.49599,-0.7971 0.30114,-0.3897 0.63771,-0.7263 0.33656,-0.3542 0.6377,-0.6554 0.0531,-0.1772 0.19485,-0.3011 0.15943,-0.1418 0.31885,-0.2657 0.17714,-0.1241 0.33657,-0.2657 0.17714,-0.1418 0.28343,-0.3366 -0.12401,-0.4075 -0.47829,-0.8149 -0.35427,-0.4251 -0.65541,-0.868 -0.0354,-0.089 -0.14171,-0.053 -0.0886,0.036 -0.124,-0.017 0.0354,-0.2303 -0.10629,-0.4959 -0.12399,-0.2657 -0.31885,-0.4606 0.0531,-0.1949 0.124,-0.4606 0.0708,-0.2834 -0.0354,-0.62 0,-0.1417 0.0531,-0.2657 0.0531,-0.1417 0.10628,-0.248 0.0531,-0.124 0.0886,-0.2302 0.0354,-0.1241 -0.0177,-0.2303 0.23029,-0.036 0.40743,0.017 0.17714,0.053 0.33656,0.1239 0.15943,0.071 0.28342,0.1063 0.14172,0.036 0.28343,-0.017 -0.0177,0.088 0,0.1239 0.0177,0.036 0.0531,0.053 0.0354,0.018 0.0708,0.053 0.0354,0.017 0.0354,0.071 0.28343,0.089 0.61999,0.3897 0.33657,0.2834 0.63771,0.6377 0.31885,0.3543 0.56685,0.7086 0.24799,0.3542 0.37199,0.5314 0.42514,-0.2657 0.92113,-0.62 0.49599,-0.372 1.02741,-0.7617 0.53142,-0.3897 1.06284,-0.7263 0.54914,-0.3543 1.06284,-0.5668 0.30114,0.1417 0.46057,0.3543 0.17714,0.1948 0.28342,0.4251 0.124,0.2126 0.21257,0.4606 0.0886,0.2303 0.248,0.4074 -0.14171,0.3011 -0.31885,0.5137 -0.15943,0.1949 -0.23029,0.4606 -0.37199,0.1594 -0.8857,0.4782 -0.46057,0.2834 -1.1337,0.7618 -0.65541,0.4782 -1.59426,1.2753 0.21257,0.248 0.35428,0.4783 0.14171,0.2303 0.23028,0.3897 0.0886,0.1949 0.15943,0.3543 0.15942,0.124 0.26571,0.2834 0.10629,0.1595 0.19486,0.3366 0.10628,0.1594 0.23028,0.3189 0.124,0.1417 0.31885,0.2302 0.10628,0.5314 0.30114,0.9566 0.19485,0.4074 0.17714,0.8503 -0.124,0.4074 -0.372,0.6731 -0.23028,0.2657 -0.33656,0.5491 -0.15943,0.053 -0.31885,0.1063 -0.15943,0.053 -0.248,0.1595 z" />
      <path
         id="path101"
         style="font-style:normal;font-variant:normal;font-weight:normal;font-stretch:normal;font-size:23.8673px;line-height:1.25;font-family:'Permanent Marker';-inkscape-font-specification:'Permanent Marker';letter-spacing:0px;word-spacing:0px;stroke-width:1.51159"
         d="m 235.75628,1117.4418 q -0.0177,0.2125 0.0354,0.4073 0.0531,0.1949 0.124,0.3898 0.0886,0.1771 0.15942,0.372 0.0708,0.1949 0.10629,0.3896 0.0354,0.2481 0,0.5492 -0.0354,0.2834 -0.124,0.5668 -0.0886,0.2658 -0.23028,0.4961 -0.14171,0.2125 -0.33657,0.3188 -0.24799,0.3189 -0.60228,0.496 -0.35427,0.1771 -0.65541,0.4251 -0.19486,0.124 -0.44285,0.1772 -0.23028,0.053 -0.47828,0.1062 -0.19486,0.1063 -0.46057,0.2303 -0.2657,0.1063 -0.54913,0.2126 -0.28342,0.089 -0.56684,0.1417 -0.28343,0.036 -0.496,0.018 -0.53142,0.1949 -1.04512,0.248 -0.496,0.071 -1.16913,-0.071 -0.63771,0.089 -1.18684,-0.053 -0.53142,-0.1417 -0.95656,-0.4429 -0.40742,-0.3188 -0.72627,-0.744 -0.30114,-0.4428 -0.496,-0.9211 -0.1417,-1.0097 0.0708,-1.8245 0.21257,-0.8326 0.60227,-1.5235 0.40743,-0.7085 0.92113,-1.293 0.51371,-0.6023 0.99199,-1.1692 0.10628,0.036 0.15943,0 0.0708,-0.053 0.12399,-0.124 0.0531,-0.089 0.10629,-0.1594 0.0708,-0.071 0.15942,-0.089 0.124,-0.2657 0.35428,-0.3897 0.248,-0.1417 0.38971,-0.3897 0.15943,-0.036 0.26571,-0.1063 0.10629,-0.071 0.19486,-0.1594 0.10628,-0.089 0.21257,-0.1595 0.10628,-0.088 0.24799,-0.1239 v -0.1949 q 0.31885,-0.1417 0.46056,-0.3189 0.15943,-0.1948 0.372,-0.4605 0.15943,-0.017 0.248,-0.017 0.10628,0 0.30113,-0.036 0.14172,-0.248 0.248,-0.372 0.124,-0.124 0.35428,-0.2657 0.21257,0.1063 0.46057,0.1417 0.26571,0.036 0.46056,0.2303 0.0177,0.1771 0.10628,0.2834 0.0886,0.089 0.19486,0.1771 0.10628,0.071 0.19486,0.1595 0.10627,0.088 0.1417,0.248 0.0708,0.017 0.0886,-0.017 0.0354,-0.036 0.10628,-0.017 0.0531,0.248 0.124,0.3365 0.0708,0.071 0.1417,0.3012 -0.0886,0.1771 -0.1417,0.372 -0.0354,0.1771 -0.21257,0.2657 -0.0177,0.124 0.0708,0.1417 0.0886,0 0.10628,0.089 0.0177,0.1595 -0.0531,0.2303 0.42513,0.6909 0.7617,1.4703 0.33657,0.7617 0.7617,1.4526 z m -2.21425,1.6828 q 0.0708,-0.1949 0.17714,-0.3188 0.124,-0.1241 0.14171,-0.3721 -0.0886,-0.1417 -0.10628,-0.2125 -0.0177,-0.089 -0.0177,-0.2657 -0.38971,-0.5492 -0.67313,-1.1691 -0.28343,-0.6378 -0.63771,-1.1869 -0.0354,0.071 -0.124,0.1417 -0.0886,0.071 -0.19485,-0.036 -0.0354,0.1416 -0.124,0.2126 -0.0886,0.053 -0.19485,0.053 -0.10629,-0.017 -0.23028,-0.053 -0.10629,-0.053 -0.19486,-0.1241 -0.51371,0.4075 -1.02741,0.7972 -0.51371,0.3896 -0.92113,0.9034 -0.0708,0.036 -0.0886,0.036 -0.0177,-0.017 -0.10629,0.018 -0.14171,0.3365 -0.35428,0.62 -0.19485,0.2657 -0.3897,0.5491 -0.19486,0.2834 -0.33657,0.6023 -0.14171,0.3188 -0.15942,0.744 0.30113,0.248 0.70856,0.3012 0.40742,0.053 0.83256,0.017 0.44284,-0.036 0.85027,-0.1063 0.42514,-0.089 0.77941,-0.089 0.74399,-0.1772 1.27541,-0.4606 0.53142,-0.3012 1.11598,-0.6023 z" />
      <path
         id="path104"
         style="font-style:normal;font-variant:normal;font-weight:normal;font-stretch:normal;font-size:23.8673px;line-height:1.25;font-family:'Permanent Marker';-inkscape-font-specification:'Permanent Marker';letter-spacing:0px;word-spacing:0px;stroke-width:1.51159"
         d="m 235.8569,1097.328 q -0.0177,0.2126 0.0354,0.4074 0.0531,0.1949 0.12399,0.3898 0.0886,0.177 0.15943,0.3719 0.0708,0.1949 0.10628,0.3897 0.0354,0.248 0,0.5491 -0.0354,0.2835 -0.12399,0.5669 -0.0886,0.2657 -0.23029,0.496 -0.14171,0.2126 -0.33656,0.3189 -0.248,0.3188 -0.60228,0.496 -0.35428,0.1771 -0.65542,0.4251 -0.19485,0.124 -0.44285,0.1771 -0.23028,0.053 -0.47828,0.1063 -0.19485,0.1063 -0.46056,0.2303 -0.26571,0.1062 -0.54913,0.2126 -0.28343,0.089 -0.56685,0.1417 -0.28343,0.036 -0.496,0.017 -0.53141,0.1948 -1.04512,0.248 -0.49599,0.071 -1.16912,-0.071 -0.63771,0.089 -1.18684,-0.053 -0.53142,-0.1417 -0.95656,-0.4429 -0.40742,-0.3188 -0.72628,-0.7439 -0.30113,-0.4429 -0.49599,-0.9211 -0.14171,-1.0098 0.0708,-1.8246 0.21257,-0.8326 0.60228,-1.5234 0.40743,-0.7085 0.92113,-1.2931 0.5137,-0.6023 0.99199,-1.1691 0.10628,0.036 0.15942,0 0.0708,-0.053 0.12399,-0.1241 0.0531,-0.089 0.10629,-0.1593 0.0708,-0.071 0.15943,-0.089 0.124,-0.2657 0.35428,-0.3897 0.24799,-0.1417 0.38971,-0.3896 0.15943,-0.036 0.2657,-0.1064 0.10629,-0.071 0.19486,-0.1594 0.10629,-0.089 0.21257,-0.1594 0.10628,-0.089 0.248,-0.124 v -0.1949 q 0.31885,-0.1416 0.46056,-0.3188 0.15942,-0.1949 0.372,-0.4606 0.15942,-0.017 0.24799,-0.017 0.10629,0 0.30114,-0.036 0.14171,-0.2479 0.24799,-0.372 0.124,-0.124 0.35428,-0.2657 0.21257,0.1063 0.46057,0.1417 0.26571,0.036 0.46056,0.2303 0.0177,0.1771 0.10629,0.2834 0.0886,0.089 0.19485,0.1771 0.10629,0.071 0.19486,0.1595 0.10628,0.089 0.14171,0.248 0.0708,0.017 0.0886,-0.018 0.0354,-0.036 0.10629,-0.017 0.0531,0.248 0.12399,0.3366 0.0708,0.071 0.14171,0.3011 -0.0886,0.1772 -0.14171,0.372 -0.0354,0.1771 -0.21257,0.2657 -0.0177,0.124 0.0708,0.1417 0.0886,0 0.10628,0.089 0.0177,0.1595 -0.0531,0.2303 0.42514,0.6908 0.7617,1.4702 0.33657,0.7618 0.7617,1.4526 z m -2.21425,1.6828 q 0.0708,-0.1948 0.17714,-0.3188 0.124,-0.1241 0.14172,-0.372 -0.0886,-0.1417 -0.10629,-0.2126 -0.0177,-0.089 -0.0177,-0.2657 -0.3897,-0.5491 -0.67313,-1.1691 -0.28343,-0.6377 -0.63771,-1.1868 -0.0354,0.071 -0.12399,0.1416 -0.0886,0.071 -0.19486,-0.036 -0.0354,0.1417 -0.12399,0.2126 -0.0886,0.053 -0.19486,0.053 -0.10628,-0.018 -0.23028,-0.053 -0.10628,-0.053 -0.19485,-0.124 -0.51371,0.4074 -1.02742,0.7971 -0.5137,0.3897 -0.92113,0.9034 -0.0708,0.036 -0.0886,0.036 -0.0177,-0.017 -0.10628,0.017 -0.14171,0.3366 -0.35428,0.62 -0.19485,0.2657 -0.38971,0.5492 -0.19486,0.2834 -0.33656,0.6022 -0.14171,0.3189 -0.15943,0.7441 0.30113,0.248 0.70856,0.3011 0.40742,0.053 0.83256,0.017 0.44285,-0.036 0.85027,-0.1063 0.42514,-0.089 0.77942,-0.089 0.74399,-0.1772 1.2754,-0.4606 0.53143,-0.3011 1.11599,-0.6023 z" />
      <path
         id="path98"
         style="font-style:normal;font-variant:normal;font-weight:normal;font-stretch:normal;font-size:23.8673px;line-height:1.25;font-family:'Permanent Marker';-inkscape-font-specification:'Permanent Marker';letter-spacing:0px;word-spacing:0px;stroke-width:1.51159"
         d="m 275.7343,1116.0026 q -0.0177,0.2126 0.0354,0.4075 0.0531,0.1948 0.12399,0.3897 0.0886,0.1771 0.15942,0.372 0.0708,0.1948 0.10629,0.3897 0.0354,0.248 0,0.5491 -0.0354,0.2835 -0.12399,0.5669 -0.0886,0.2657 -0.23029,0.4959 -0.14171,0.2126 -0.33657,0.3189 -0.24799,0.3189 -0.60227,0.496 -0.35428,0.1772 -0.65542,0.4252 -0.19485,0.1239 -0.44285,0.177 -0.23028,0.053 -0.47828,0.1064 -0.19485,0.1062 -0.46056,0.2302 -0.26571,0.1063 -0.54914,0.2126 -0.28342,0.089 -0.56684,0.1418 -0.28343,0.036 -0.49599,0.017 -0.53143,0.1948 -1.04513,0.248 -0.49599,0.071 -1.16913,-0.071 -0.6377,0.089 -1.18683,-0.053 -0.53143,-0.1416 -0.95656,-0.4428 -0.40742,-0.3188 -0.72627,-0.744 -0.30115,-0.4428 -0.496,-0.9211 -0.14171,-1.0097 0.0708,-1.8245 0.21256,-0.8326 0.60227,-1.5234 0.40743,-0.7086 0.92113,-1.2932 0.51371,-0.6023 0.99199,-1.1691 0.10628,0.036 0.15942,0 0.0708,-0.053 0.124,-0.124 0.0531,-0.089 0.10628,-0.1594 0.0708,-0.071 0.15943,-0.089 0.124,-0.2657 0.35428,-0.3897 0.24799,-0.1417 0.38971,-0.3897 0.15943,-0.036 0.2657,-0.1063 0.10629,-0.071 0.19486,-0.1595 0.10629,-0.089 0.21257,-0.1593 0.10628,-0.089 0.248,-0.1241 v -0.1948 q 0.31885,-0.1417 0.46056,-0.3189 0.15942,-0.1948 0.372,-0.4605 0.15942,-0.017 0.24799,-0.017 0.10629,0 0.30114,-0.036 0.14171,-0.248 0.248,-0.372 0.12399,-0.1241 0.35427,-0.2657 0.21257,0.1062 0.46057,0.1416 0.26571,0.036 0.46056,0.2303 0.0177,0.1772 0.10629,0.2835 0.0886,0.089 0.19485,0.1771 0.10629,0.071 0.19486,0.1594 0.10628,0.089 0.14171,0.248 0.0708,0.017 0.0886,-0.018 0.0354,-0.036 0.10629,-0.017 0.0531,0.248 0.12399,0.3367 0.0708,0.071 0.14172,0.3011 -0.0886,0.1771 -0.14172,0.372 -0.0354,0.1771 -0.21257,0.2657 -0.0177,0.1239 0.0708,0.1416 0.0886,0 0.10628,0.089 0.0177,0.1594 -0.0531,0.2302 0.42514,0.6909 0.7617,1.4703 0.33657,0.7617 0.7617,1.4525 z m -2.21425,1.6828 q 0.0708,-0.1948 0.17714,-0.3188 0.124,-0.124 0.14171,-0.372 -0.0886,-0.1417 -0.10628,-0.2126 -0.0177,-0.088 -0.0177,-0.2657 -0.3897,-0.5491 -0.67313,-1.1691 -0.28343,-0.6377 -0.6377,-1.1868 -0.0354,0.071 -0.124,0.1417 -0.0886,0.071 -0.19486,-0.036 -0.0354,0.1418 -0.12399,0.2126 -0.0886,0.053 -0.19486,0.053 -0.10629,-0.017 -0.23028,-0.053 -0.10629,-0.053 -0.19486,-0.1239 -0.5137,0.4073 -1.02741,0.7971 -0.51371,0.3897 -0.92113,0.9034 -0.0708,0.036 -0.0886,0.036 -0.0177,-0.018 -0.10628,0.017 -0.14171,0.3366 -0.35428,0.62 -0.19485,0.2657 -0.38971,0.5491 -0.19486,0.2835 -0.33657,0.6023 -0.14171,0.3189 -0.15942,0.744 0.30113,0.248 0.70856,0.3011 0.40742,0.053 0.83256,0.018 0.44285,-0.036 0.85027,-0.1062 0.42514,-0.089 0.77942,-0.089 0.74399,-0.1771 1.27541,-0.4605 0.53141,-0.3011 1.11597,-0.6023 z" />
    </g>
    <text
       id="text894"
       y="1188.3237"
       x="389.16162"
       style="font-style:normal;font-variant:normal;font-weight:normal;font-stretch:normal;font-size:115.663px;line-height:1.25;font-family:'Permanent Marker';-inkscape-font-specification:'Permanent Marker';letter-spacing:0px;word-spacing:0px;stroke-width:0.602412"
       xml:space="preserve"><tspan
         style="stroke-width:0.602412"
         y="1188.3237"
         x="389.16162"
         id="tspan892"
         sodipodi:role="line">Tic Tac Toe</tspan></text>
  </g>
</svg>
